<mxfile host="Electron" agent="Mozilla/5.0 (Windows NT 10.0; Win64; x64) AppleWebKit/537.36 (KHTML, like Gecko) draw.io/26.2.2 Chrome/134.0.6998.178 Electron/35.1.2 Safari/537.36" version="26.2.2">
  <diagram id="R2lEEEUBdFMjLlhIrx00" name="Page-1">
    <mxGraphModel dx="1925" dy="1795" grid="1" gridSize="10" guides="1" tooltips="1" connect="1" arrows="1" fold="1" page="1" pageScale="1" pageWidth="850" pageHeight="1100" math="0" shadow="0" extFonts="Permanent Marker^https://fonts.googleapis.com/css?family=Permanent+Marker">
      <root>
        <mxCell id="0" />
        <mxCell id="1" parent="0" />
        <mxCell id="AhkezG-56c2PrOf4I1hO-47" value="" style="edgeStyle=entityRelationEdgeStyle;fontSize=12;html=1;endArrow=ERoneToMany;rounded=0;exitX=0.43;exitY=1;exitDx=0;exitDy=0;exitPerimeter=0;" edge="1" parent="1" source="AhkezG-56c2PrOf4I1hO-22" target="AhkezG-56c2PrOf4I1hO-46">
          <mxGeometry width="100" height="100" relative="1" as="geometry">
            <mxPoint x="650" y="260" as="sourcePoint" />
            <mxPoint x="600" y="370" as="targetPoint" />
            <Array as="points">
              <mxPoint x="560" y="300" />
              <mxPoint x="560" y="330" />
            </Array>
          </mxGeometry>
        </mxCell>
        <mxCell id="AhkezG-56c2PrOf4I1hO-1" value="JOB LISTING" style="rounded=0;whiteSpace=wrap;html=1;" vertex="1" parent="1">
          <mxGeometry x="310" y="160" width="120" height="60" as="geometry" />
        </mxCell>
        <mxCell id="AhkezG-56c2PrOf4I1hO-3" value="" style="endArrow=none;html=1;rounded=0;" edge="1" parent="1" target="AhkezG-56c2PrOf4I1hO-4">
          <mxGeometry width="50" height="50" relative="1" as="geometry">
            <mxPoint x="370" y="160" as="sourcePoint" />
            <mxPoint x="320" y="110" as="targetPoint" />
          </mxGeometry>
        </mxCell>
        <mxCell id="AhkezG-56c2PrOf4I1hO-4" value="Location" style="ellipse;whiteSpace=wrap;html=1;" vertex="1" parent="1">
          <mxGeometry x="240" y="70" width="80" height="30" as="geometry" />
        </mxCell>
        <mxCell id="AhkezG-56c2PrOf4I1hO-5" value="" style="endArrow=none;html=1;rounded=0;" edge="1" parent="1" target="AhkezG-56c2PrOf4I1hO-6">
          <mxGeometry width="50" height="50" relative="1" as="geometry">
            <mxPoint x="370" y="160" as="sourcePoint" />
            <mxPoint x="330" y="60" as="targetPoint" />
          </mxGeometry>
        </mxCell>
        <mxCell id="AhkezG-56c2PrOf4I1hO-6" value="Position" style="ellipse;whiteSpace=wrap;html=1;" vertex="1" parent="1">
          <mxGeometry x="270" y="20" width="90" height="40" as="geometry" />
        </mxCell>
        <mxCell id="AhkezG-56c2PrOf4I1hO-7" value="" style="endArrow=none;html=1;rounded=0;" edge="1" parent="1" target="AhkezG-56c2PrOf4I1hO-8">
          <mxGeometry width="50" height="50" relative="1" as="geometry">
            <mxPoint x="370" y="160" as="sourcePoint" />
            <mxPoint x="380" y="80" as="targetPoint" />
          </mxGeometry>
        </mxCell>
        <mxCell id="AhkezG-56c2PrOf4I1hO-8" value="JP ID" style="ellipse;whiteSpace=wrap;html=1;" vertex="1" parent="1">
          <mxGeometry x="340" y="-10" width="80" height="30" as="geometry" />
        </mxCell>
        <mxCell id="AhkezG-56c2PrOf4I1hO-9" value="" style="endArrow=none;html=1;rounded=0;" edge="1" parent="1" target="AhkezG-56c2PrOf4I1hO-10">
          <mxGeometry width="50" height="50" relative="1" as="geometry">
            <mxPoint x="370" y="160" as="sourcePoint" />
            <mxPoint x="410" y="70" as="targetPoint" />
          </mxGeometry>
        </mxCell>
        <mxCell id="AhkezG-56c2PrOf4I1hO-10" value="JOB ID" style="ellipse;whiteSpace=wrap;html=1;" vertex="1" parent="1">
          <mxGeometry x="390" y="20" width="70" height="30" as="geometry" />
        </mxCell>
        <mxCell id="AhkezG-56c2PrOf4I1hO-11" value="" style="endArrow=none;html=1;rounded=0;" edge="1" parent="1" target="AhkezG-56c2PrOf4I1hO-12">
          <mxGeometry width="50" height="50" relative="1" as="geometry">
            <mxPoint x="370" y="160" as="sourcePoint" />
            <mxPoint x="480" y="30" as="targetPoint" />
          </mxGeometry>
        </mxCell>
        <mxCell id="AhkezG-56c2PrOf4I1hO-12" value="Renumeration" style="ellipse;whiteSpace=wrap;html=1;" vertex="1" parent="1">
          <mxGeometry x="440" y="-20" width="90" height="30" as="geometry" />
        </mxCell>
        <mxCell id="AhkezG-56c2PrOf4I1hO-13" value="" style="endArrow=none;html=1;rounded=0;" edge="1" parent="1" target="AhkezG-56c2PrOf4I1hO-14">
          <mxGeometry width="50" height="50" relative="1" as="geometry">
            <mxPoint x="370" y="160" as="sourcePoint" />
            <mxPoint x="460" y="90" as="targetPoint" />
          </mxGeometry>
        </mxCell>
        <mxCell id="AhkezG-56c2PrOf4I1hO-14" value="Description and Requirements" style="ellipse;whiteSpace=wrap;html=1;" vertex="1" parent="1">
          <mxGeometry x="450" y="50" width="100" height="40" as="geometry" />
        </mxCell>
        <mxCell id="AhkezG-56c2PrOf4I1hO-16" value="" style="edgeStyle=entityRelationEdgeStyle;fontSize=12;html=1;endArrow=ERmany;rounded=0;" edge="1" parent="1" target="AhkezG-56c2PrOf4I1hO-17">
          <mxGeometry width="100" height="100" relative="1" as="geometry">
            <mxPoint x="430" y="190" as="sourcePoint" />
            <mxPoint x="520" y="210" as="targetPoint" />
            <Array as="points">
              <mxPoint x="500" y="220" />
            </Array>
          </mxGeometry>
        </mxCell>
        <mxCell id="AhkezG-56c2PrOf4I1hO-17" value="Search" style="shape=rhombus;perimeter=rhombusPerimeter;whiteSpace=wrap;html=1;align=center;" vertex="1" parent="1">
          <mxGeometry x="500" y="140" width="90" height="40" as="geometry" />
        </mxCell>
        <mxCell id="AhkezG-56c2PrOf4I1hO-18" value="" style="edgeStyle=entityRelationEdgeStyle;fontSize=12;html=1;endArrow=ERmany;rounded=0;" edge="1" parent="1" target="AhkezG-56c2PrOf4I1hO-19">
          <mxGeometry width="100" height="100" relative="1" as="geometry">
            <mxPoint x="430" y="200" as="sourcePoint" />
            <mxPoint x="500" y="230" as="targetPoint" />
          </mxGeometry>
        </mxCell>
        <mxCell id="AhkezG-56c2PrOf4I1hO-19" value="Apply" style="shape=rhombus;perimeter=rhombusPerimeter;whiteSpace=wrap;html=1;align=center;" vertex="1" parent="1">
          <mxGeometry x="500" y="190" width="90" height="40" as="geometry" />
        </mxCell>
        <mxCell id="AhkezG-56c2PrOf4I1hO-20" value="" style="edgeStyle=entityRelationEdgeStyle;fontSize=12;html=1;endArrow=ERoneToMany;rounded=0;entryX=0;entryY=0.25;entryDx=0;entryDy=0;" edge="1" parent="1" target="AhkezG-56c2PrOf4I1hO-22">
          <mxGeometry width="100" height="100" relative="1" as="geometry">
            <mxPoint x="590" y="160" as="sourcePoint" />
            <mxPoint x="680" y="180" as="targetPoint" />
          </mxGeometry>
        </mxCell>
        <mxCell id="AhkezG-56c2PrOf4I1hO-21" value="" style="edgeStyle=entityRelationEdgeStyle;fontSize=12;html=1;endArrow=ERoneToMany;rounded=0;" edge="1" parent="1" target="AhkezG-56c2PrOf4I1hO-22">
          <mxGeometry width="100" height="100" relative="1" as="geometry">
            <mxPoint x="590" y="210" as="sourcePoint" />
            <mxPoint x="680" y="190" as="targetPoint" />
          </mxGeometry>
        </mxCell>
        <mxCell id="AhkezG-56c2PrOf4I1hO-22" value="JOB SEEKER" style="whiteSpace=wrap;html=1;align=center;" vertex="1" parent="1">
          <mxGeometry x="680" y="170" width="100" height="40" as="geometry" />
        </mxCell>
        <mxCell id="AhkezG-56c2PrOf4I1hO-23" value="" style="endArrow=none;html=1;rounded=0;entryX=0.39;entryY=-0.05;entryDx=0;entryDy=0;entryPerimeter=0;exitX=0.5;exitY=1;exitDx=0;exitDy=0;" edge="1" parent="1" source="AhkezG-56c2PrOf4I1hO-24" target="AhkezG-56c2PrOf4I1hO-22">
          <mxGeometry relative="1" as="geometry">
            <mxPoint x="610" y="110" as="sourcePoint" />
            <mxPoint x="710" y="150" as="targetPoint" />
          </mxGeometry>
        </mxCell>
        <mxCell id="AhkezG-56c2PrOf4I1hO-24" value="Login key" style="ellipse;whiteSpace=wrap;html=1;align=center;" vertex="1" parent="1">
          <mxGeometry x="560" y="80" width="80" height="30" as="geometry" />
        </mxCell>
        <mxCell id="AhkezG-56c2PrOf4I1hO-25" value="" style="endArrow=none;html=1;rounded=0;" edge="1" parent="1" target="AhkezG-56c2PrOf4I1hO-26">
          <mxGeometry width="50" height="50" relative="1" as="geometry">
            <mxPoint x="720" y="170" as="sourcePoint" />
            <mxPoint x="650" y="80" as="targetPoint" />
          </mxGeometry>
        </mxCell>
        <mxCell id="AhkezG-56c2PrOf4I1hO-26" value="Phone number" style="ellipse;whiteSpace=wrap;html=1;" vertex="1" parent="1">
          <mxGeometry x="590" y="40" width="90" height="30" as="geometry" />
        </mxCell>
        <mxCell id="AhkezG-56c2PrOf4I1hO-27" value="" style="endArrow=none;html=1;rounded=0;" edge="1" parent="1" target="AhkezG-56c2PrOf4I1hO-28">
          <mxGeometry width="50" height="50" relative="1" as="geometry">
            <mxPoint x="720" y="170" as="sourcePoint" />
            <mxPoint x="700" y="40" as="targetPoint" />
          </mxGeometry>
        </mxCell>
        <mxCell id="AhkezG-56c2PrOf4I1hO-28" value="Username" style="ellipse;whiteSpace=wrap;html=1;" vertex="1" parent="1">
          <mxGeometry x="640" width="100" height="40" as="geometry" />
        </mxCell>
        <mxCell id="AhkezG-56c2PrOf4I1hO-29" value="" style="endArrow=none;html=1;rounded=0;" edge="1" parent="1" target="AhkezG-56c2PrOf4I1hO-30">
          <mxGeometry width="50" height="50" relative="1" as="geometry">
            <mxPoint x="720" y="170" as="sourcePoint" />
            <mxPoint x="730" y="80" as="targetPoint" />
          </mxGeometry>
        </mxCell>
        <mxCell id="AhkezG-56c2PrOf4I1hO-30" value="JS ID" style="ellipse;whiteSpace=wrap;html=1;" vertex="1" parent="1">
          <mxGeometry x="710" y="40" width="90" height="30" as="geometry" />
        </mxCell>
        <mxCell id="AhkezG-56c2PrOf4I1hO-31" value="" style="endArrow=none;html=1;rounded=0;" edge="1" parent="1" target="AhkezG-56c2PrOf4I1hO-32">
          <mxGeometry width="50" height="50" relative="1" as="geometry">
            <mxPoint x="720" y="170" as="sourcePoint" />
            <mxPoint x="780" y="90" as="targetPoint" />
          </mxGeometry>
        </mxCell>
        <mxCell id="AhkezG-56c2PrOf4I1hO-32" value="E-mail ID" style="ellipse;whiteSpace=wrap;html=1;" vertex="1" parent="1">
          <mxGeometry x="760" y="70" width="90" height="30" as="geometry" />
        </mxCell>
        <mxCell id="AhkezG-56c2PrOf4I1hO-33" value="" style="endArrow=none;html=1;rounded=0;" edge="1" parent="1" target="AhkezG-56c2PrOf4I1hO-34">
          <mxGeometry width="50" height="50" relative="1" as="geometry">
            <mxPoint x="720" y="170" as="sourcePoint" />
            <mxPoint x="800" y="130" as="targetPoint" />
          </mxGeometry>
        </mxCell>
        <mxCell id="AhkezG-56c2PrOf4I1hO-34" value="CV" style="ellipse;whiteSpace=wrap;html=1;" vertex="1" parent="1">
          <mxGeometry x="790" y="110" width="90" height="40" as="geometry" />
        </mxCell>
        <mxCell id="AhkezG-56c2PrOf4I1hO-35" value="" style="edgeStyle=entityRelationEdgeStyle;fontSize=12;html=1;endArrow=ERmany;startArrow=ERmany;rounded=0;exitX=1;exitY=0.5;exitDx=0;exitDy=0;" edge="1" parent="1" source="AhkezG-56c2PrOf4I1hO-37">
          <mxGeometry width="100" height="100" relative="1" as="geometry">
            <mxPoint x="220" y="210" as="sourcePoint" />
            <mxPoint x="310" y="190" as="targetPoint" />
          </mxGeometry>
        </mxCell>
        <mxCell id="AhkezG-56c2PrOf4I1hO-36" value="JOB APPLICANTS" style="whiteSpace=wrap;html=1;align=center;" vertex="1" parent="1">
          <mxGeometry x="-40" y="170" width="100" height="40" as="geometry" />
        </mxCell>
        <mxCell id="AhkezG-56c2PrOf4I1hO-37" value="Contains" style="shape=rhombus;perimeter=rhombusPerimeter;whiteSpace=wrap;html=1;align=center;" vertex="1" parent="1">
          <mxGeometry x="140" y="185" width="80" height="35" as="geometry" />
        </mxCell>
        <mxCell id="AhkezG-56c2PrOf4I1hO-38" value="" style="edgeStyle=entityRelationEdgeStyle;fontSize=12;html=1;endArrow=ERmany;startArrow=ERmany;rounded=0;" edge="1" parent="1" target="AhkezG-56c2PrOf4I1hO-37">
          <mxGeometry width="100" height="100" relative="1" as="geometry">
            <mxPoint x="60" y="190" as="sourcePoint" />
            <mxPoint x="140" y="200" as="targetPoint" />
          </mxGeometry>
        </mxCell>
        <mxCell id="AhkezG-56c2PrOf4I1hO-39" value="" style="endArrow=none;html=1;rounded=0;" edge="1" parent="1" target="AhkezG-56c2PrOf4I1hO-40">
          <mxGeometry width="50" height="50" relative="1" as="geometry">
            <mxPoint y="170" as="sourcePoint" />
            <mxPoint x="-30" y="110" as="targetPoint" />
          </mxGeometry>
        </mxCell>
        <mxCell id="AhkezG-56c2PrOf4I1hO-40" value="JS ID" style="ellipse;whiteSpace=wrap;html=1;" vertex="1" parent="1">
          <mxGeometry x="-90" y="70" width="80" height="40" as="geometry" />
        </mxCell>
        <mxCell id="AhkezG-56c2PrOf4I1hO-41" value="" style="endArrow=none;html=1;rounded=0;" edge="1" parent="1" target="AhkezG-56c2PrOf4I1hO-42">
          <mxGeometry width="50" height="50" relative="1" as="geometry">
            <mxPoint y="170" as="sourcePoint" />
            <mxPoint x="40" y="100" as="targetPoint" />
          </mxGeometry>
        </mxCell>
        <mxCell id="AhkezG-56c2PrOf4I1hO-42" value="JOB ID" style="ellipse;whiteSpace=wrap;html=1;" vertex="1" parent="1">
          <mxGeometry x="10" y="60" width="90" height="40" as="geometry" />
        </mxCell>
        <mxCell id="AhkezG-56c2PrOf4I1hO-44" value="" style="edgeStyle=entityRelationEdgeStyle;fontSize=12;html=1;endArrow=ERoneToMany;rounded=0;exitX=0.417;exitY=1;exitDx=0;exitDy=0;exitPerimeter=0;entryX=0;entryY=0.5;entryDx=0;entryDy=0;" edge="1" parent="1" source="AhkezG-56c2PrOf4I1hO-1" target="AhkezG-56c2PrOf4I1hO-46">
          <mxGeometry width="100" height="100" relative="1" as="geometry">
            <mxPoint x="360" y="240" as="sourcePoint" />
            <mxPoint x="450" y="320" as="targetPoint" />
            <Array as="points">
              <mxPoint x="350" y="260" />
            </Array>
          </mxGeometry>
        </mxCell>
        <mxCell id="AhkezG-56c2PrOf4I1hO-46" value="Interview" style="whiteSpace=wrap;html=1;align=center;" vertex="1" parent="1">
          <mxGeometry x="460" y="350" width="100" height="40" as="geometry" />
        </mxCell>
        <mxCell id="AhkezG-56c2PrOf4I1hO-48" value="" style="endArrow=none;html=1;rounded=0;" edge="1" parent="1" target="AhkezG-56c2PrOf4I1hO-49">
          <mxGeometry width="50" height="50" relative="1" as="geometry">
            <mxPoint x="510" y="350" as="sourcePoint" />
            <mxPoint x="430" y="300" as="targetPoint" />
          </mxGeometry>
        </mxCell>
        <mxCell id="AhkezG-56c2PrOf4I1hO-49" value="Interview ID" style="ellipse;whiteSpace=wrap;html=1;" vertex="1" parent="1">
          <mxGeometry x="400" y="240" width="80" height="30" as="geometry" />
        </mxCell>
        <mxCell id="AhkezG-56c2PrOf4I1hO-50" value="" style="endArrow=none;html=1;rounded=0;exitX=0.5;exitY=0;exitDx=0;exitDy=0;" edge="1" parent="1" source="AhkezG-56c2PrOf4I1hO-46" target="AhkezG-56c2PrOf4I1hO-51">
          <mxGeometry width="50" height="50" relative="1" as="geometry">
            <mxPoint x="475" y="350" as="sourcePoint" />
            <mxPoint x="500" y="270" as="targetPoint" />
          </mxGeometry>
        </mxCell>
        <mxCell id="AhkezG-56c2PrOf4I1hO-51" value="Application" style="ellipse;whiteSpace=wrap;html=1;" vertex="1" parent="1">
          <mxGeometry x="470" y="230" width="80" height="30" as="geometry" />
        </mxCell>
        <mxCell id="AhkezG-56c2PrOf4I1hO-52" value="" style="endArrow=none;html=1;rounded=0;" edge="1" parent="1" target="AhkezG-56c2PrOf4I1hO-53">
          <mxGeometry width="50" height="50" relative="1" as="geometry">
            <mxPoint x="510" y="350" as="sourcePoint" />
            <mxPoint x="530" y="290" as="targetPoint" />
          </mxGeometry>
        </mxCell>
        <mxCell id="AhkezG-56c2PrOf4I1hO-53" value="Schedule" style="ellipse;whiteSpace=wrap;html=1;" vertex="1" parent="1">
          <mxGeometry x="520" y="260" width="80" height="30" as="geometry" />
        </mxCell>
        <mxCell id="AhkezG-56c2PrOf4I1hO-54" value="" style="endArrow=none;html=1;rounded=0;" edge="1" parent="1" target="AhkezG-56c2PrOf4I1hO-55">
          <mxGeometry width="50" height="50" relative="1" as="geometry">
            <mxPoint x="510" y="350" as="sourcePoint" />
            <mxPoint x="630" y="270" as="targetPoint" />
          </mxGeometry>
        </mxCell>
        <mxCell id="AhkezG-56c2PrOf4I1hO-55" value="Outcome" style="ellipse;whiteSpace=wrap;html=1;" vertex="1" parent="1">
          <mxGeometry x="580" y="230" width="80" height="30" as="geometry" />
        </mxCell>
        <mxCell id="AhkezG-56c2PrOf4I1hO-56" value="" style="edgeStyle=entityRelationEdgeStyle;fontSize=12;html=1;endArrow=ERoneToMany;rounded=0;entryX=0.63;entryY=1.05;entryDx=0;entryDy=0;entryPerimeter=0;exitX=0.5;exitY=0;exitDx=0;exitDy=0;" edge="1" parent="1" source="AhkezG-56c2PrOf4I1hO-57" target="AhkezG-56c2PrOf4I1hO-22">
          <mxGeometry width="100" height="100" relative="1" as="geometry">
            <mxPoint x="750" y="286" as="sourcePoint" />
            <mxPoint x="820" y="260" as="targetPoint" />
            <Array as="points">
              <mxPoint x="770" y="250" />
              <mxPoint x="760" y="250" />
            </Array>
          </mxGeometry>
        </mxCell>
        <mxCell id="AhkezG-56c2PrOf4I1hO-57" value="Moderate" style="shape=rhombus;perimeter=rhombusPerimeter;whiteSpace=wrap;html=1;align=center;" vertex="1" parent="1">
          <mxGeometry x="710" y="270" width="80" height="40" as="geometry" />
        </mxCell>
        <mxCell id="AhkezG-56c2PrOf4I1hO-58" value="" style="edgeStyle=entityRelationEdgeStyle;fontSize=12;html=1;endArrow=ERoneToMany;rounded=0;entryX=0.5;entryY=1;entryDx=0;entryDy=0;exitX=0.5;exitY=0;exitDx=0;exitDy=0;" edge="1" parent="1" source="AhkezG-56c2PrOf4I1hO-59" target="AhkezG-56c2PrOf4I1hO-57">
          <mxGeometry width="100" height="100" relative="1" as="geometry">
            <mxPoint x="740" y="390" as="sourcePoint" />
            <mxPoint x="810" y="330" as="targetPoint" />
          </mxGeometry>
        </mxCell>
        <mxCell id="AhkezG-56c2PrOf4I1hO-59" value="Admin" style="whiteSpace=wrap;html=1;align=center;" vertex="1" parent="1">
          <mxGeometry x="690" y="380" width="100" height="40" as="geometry" />
        </mxCell>
        <mxCell id="AhkezG-56c2PrOf4I1hO-60" value="" style="endArrow=none;html=1;rounded=0;" edge="1" parent="1" target="AhkezG-56c2PrOf4I1hO-62">
          <mxGeometry width="50" height="50" relative="1" as="geometry">
            <mxPoint x="730" y="420" as="sourcePoint" />
            <mxPoint x="740" y="420" as="targetPoint" />
          </mxGeometry>
        </mxCell>
        <mxCell id="AhkezG-56c2PrOf4I1hO-62" value="Admin ID" style="ellipse;whiteSpace=wrap;html=1;" vertex="1" parent="1">
          <mxGeometry x="650" y="440" width="80" height="40" as="geometry" />
        </mxCell>
        <mxCell id="AhkezG-56c2PrOf4I1hO-63" value="" style="endArrow=none;html=1;rounded=0;entryX=0.44;entryY=1.025;entryDx=0;entryDy=0;entryPerimeter=0;exitX=0.333;exitY=0;exitDx=0;exitDy=0;exitPerimeter=0;" edge="1" parent="1" source="AhkezG-56c2PrOf4I1hO-65" target="AhkezG-56c2PrOf4I1hO-59">
          <mxGeometry width="50" height="50" relative="1" as="geometry">
            <mxPoint x="780" y="460" as="sourcePoint" />
            <mxPoint x="820" y="480" as="targetPoint" />
          </mxGeometry>
        </mxCell>
        <mxCell id="AhkezG-56c2PrOf4I1hO-65" value="Login Key" style="ellipse;whiteSpace=wrap;html=1;" vertex="1" parent="1">
          <mxGeometry x="760" y="445" width="90" height="30" as="geometry" />
        </mxCell>
        <mxCell id="AhkezG-56c2PrOf4I1hO-69" value="" style="edgeStyle=entityRelationEdgeStyle;fontSize=12;html=1;endArrow=ERoneToMany;rounded=0;entryX=0.45;entryY=1.05;entryDx=0;entryDy=0;entryPerimeter=0;exitX=0.5;exitY=0;exitDx=0;exitDy=0;" edge="1" parent="1" source="AhkezG-56c2PrOf4I1hO-70" target="AhkezG-56c2PrOf4I1hO-1">
          <mxGeometry width="100" height="100" relative="1" as="geometry">
            <mxPoint x="340" y="370" as="sourcePoint" />
            <mxPoint x="370" y="260" as="targetPoint" />
          </mxGeometry>
        </mxCell>
        <mxCell id="AhkezG-56c2PrOf4I1hO-70" value="Edit and update" style="shape=rhombus;perimeter=rhombusPerimeter;whiteSpace=wrap;html=1;align=center;" vertex="1" parent="1">
          <mxGeometry x="370" y="405" width="90" height="40" as="geometry" />
        </mxCell>
        <mxCell id="AhkezG-56c2PrOf4I1hO-71" value="" style="edgeStyle=entityRelationEdgeStyle;fontSize=12;html=1;endArrow=ERoneToMany;rounded=0;entryX=1;entryY=0.5;entryDx=0;entryDy=0;exitX=0;exitY=0.5;exitDx=0;exitDy=0;" edge="1" parent="1" source="AhkezG-56c2PrOf4I1hO-59" target="AhkezG-56c2PrOf4I1hO-70">
          <mxGeometry width="100" height="100" relative="1" as="geometry">
            <mxPoint x="410" y="530" as="sourcePoint" />
            <mxPoint x="510" y="430" as="targetPoint" />
          </mxGeometry>
        </mxCell>
        <mxCell id="AhkezG-56c2PrOf4I1hO-72" value="" style="edgeStyle=entityRelationEdgeStyle;fontSize=12;html=1;endArrow=ERoneToMany;rounded=0;entryX=0.342;entryY=1.017;entryDx=0;entryDy=0;entryPerimeter=0;exitX=0.5;exitY=0;exitDx=0;exitDy=0;" edge="1" parent="1" source="AhkezG-56c2PrOf4I1hO-73" target="AhkezG-56c2PrOf4I1hO-1">
          <mxGeometry width="100" height="100" relative="1" as="geometry">
            <mxPoint x="280" y="370" as="sourcePoint" />
            <mxPoint x="340" y="270" as="targetPoint" />
          </mxGeometry>
        </mxCell>
        <mxCell id="AhkezG-56c2PrOf4I1hO-73" value="Post" style="shape=rhombus;perimeter=rhombusPerimeter;whiteSpace=wrap;html=1;align=center;" vertex="1" parent="1">
          <mxGeometry x="230" y="340" width="120" height="60" as="geometry" />
        </mxCell>
        <mxCell id="AhkezG-56c2PrOf4I1hO-74" value="" style="edgeStyle=entityRelationEdgeStyle;fontSize=12;html=1;endArrow=ERoneToMany;rounded=0;entryX=0.5;entryY=1;entryDx=0;entryDy=0;exitX=0.5;exitY=0;exitDx=0;exitDy=0;" edge="1" parent="1" source="AhkezG-56c2PrOf4I1hO-75" target="AhkezG-56c2PrOf4I1hO-73">
          <mxGeometry width="100" height="100" relative="1" as="geometry">
            <mxPoint x="280" y="490" as="sourcePoint" />
            <mxPoint x="300" y="405" as="targetPoint" />
          </mxGeometry>
        </mxCell>
        <mxCell id="AhkezG-56c2PrOf4I1hO-75" value="Job provider" style="whiteSpace=wrap;html=1;align=center;" vertex="1" parent="1">
          <mxGeometry x="220" y="500" width="120" height="50" as="geometry" />
        </mxCell>
        <mxCell id="AhkezG-56c2PrOf4I1hO-76" value="" style="endArrow=none;html=1;rounded=0;exitX=0.5;exitY=1;exitDx=0;exitDy=0;" edge="1" parent="1" source="AhkezG-56c2PrOf4I1hO-75" target="AhkezG-56c2PrOf4I1hO-77">
          <mxGeometry width="50" height="50" relative="1" as="geometry">
            <mxPoint x="240" y="570" as="sourcePoint" />
            <mxPoint x="280" y="550" as="targetPoint" />
          </mxGeometry>
        </mxCell>
        <mxCell id="AhkezG-56c2PrOf4I1hO-77" value="Job listing no." style="ellipse;whiteSpace=wrap;html=1;" vertex="1" parent="1">
          <mxGeometry x="160" y="570" width="80" height="40" as="geometry" />
        </mxCell>
        <mxCell id="AhkezG-56c2PrOf4I1hO-80" value="" style="endArrow=none;html=1;rounded=0;exitX=0.663;exitY=0.075;exitDx=0;exitDy=0;exitPerimeter=0;" edge="1" parent="1" source="AhkezG-56c2PrOf4I1hO-81">
          <mxGeometry width="50" height="50" relative="1" as="geometry">
            <mxPoint x="255" y="640" as="sourcePoint" />
            <mxPoint x="280" y="550" as="targetPoint" />
          </mxGeometry>
        </mxCell>
        <mxCell id="AhkezG-56c2PrOf4I1hO-81" value="Company Name" style="ellipse;whiteSpace=wrap;html=1;" vertex="1" parent="1">
          <mxGeometry x="180" y="620" width="100" height="40" as="geometry" />
        </mxCell>
        <mxCell id="AhkezG-56c2PrOf4I1hO-82" value="" style="endArrow=none;html=1;rounded=0;exitX=0.5;exitY=1;exitDx=0;exitDy=0;" edge="1" parent="1" source="AhkezG-56c2PrOf4I1hO-75" target="AhkezG-56c2PrOf4I1hO-83">
          <mxGeometry width="50" height="50" relative="1" as="geometry">
            <mxPoint x="280" y="560" as="sourcePoint" />
            <mxPoint x="270" y="560" as="targetPoint" />
            <Array as="points">
              <mxPoint x="300" y="580" />
            </Array>
          </mxGeometry>
        </mxCell>
        <mxCell id="AhkezG-56c2PrOf4I1hO-83" value="JP ID" style="ellipse;whiteSpace=wrap;html=1;" vertex="1" parent="1">
          <mxGeometry x="290" y="620" width="90" height="40" as="geometry" />
        </mxCell>
        <mxCell id="AhkezG-56c2PrOf4I1hO-84" value="" style="endArrow=none;html=1;rounded=0;entryX=0.5;entryY=1;entryDx=0;entryDy=0;exitX=0.319;exitY=0.046;exitDx=0;exitDy=0;exitPerimeter=0;" edge="1" parent="1" source="AhkezG-56c2PrOf4I1hO-85" target="AhkezG-56c2PrOf4I1hO-75">
          <mxGeometry width="50" height="50" relative="1" as="geometry">
            <mxPoint x="420" y="640" as="sourcePoint" />
            <mxPoint x="470" y="590" as="targetPoint" />
          </mxGeometry>
        </mxCell>
        <mxCell id="AhkezG-56c2PrOf4I1hO-85" value="Login key" style="ellipse;whiteSpace=wrap;html=1;" vertex="1" parent="1">
          <mxGeometry x="390" y="620" width="90" height="50" as="geometry" />
        </mxCell>
        <mxCell id="AhkezG-56c2PrOf4I1hO-86" value="" style="endArrow=none;html=1;rounded=0;entryX=0.5;entryY=1;entryDx=0;entryDy=0;exitX=0.003;exitY=0.371;exitDx=0;exitDy=0;exitPerimeter=0;" edge="1" parent="1" source="AhkezG-56c2PrOf4I1hO-87" target="AhkezG-56c2PrOf4I1hO-75">
          <mxGeometry width="50" height="50" relative="1" as="geometry">
            <mxPoint x="460" y="615" as="sourcePoint" />
            <mxPoint x="510" y="565" as="targetPoint" />
          </mxGeometry>
        </mxCell>
        <mxCell id="AhkezG-56c2PrOf4I1hO-87" value="Applicants Hired" style="ellipse;whiteSpace=wrap;html=1;" vertex="1" parent="1">
          <mxGeometry x="460" y="570" width="100" height="40" as="geometry" />
        </mxCell>
        <mxCell id="AhkezG-56c2PrOf4I1hO-88" value="" style="edgeStyle=entityRelationEdgeStyle;fontSize=12;html=1;endArrow=ERoneToMany;rounded=0;exitX=0.167;exitY=0;exitDx=0;exitDy=0;exitPerimeter=0;" edge="1" parent="1" source="AhkezG-56c2PrOf4I1hO-75" target="AhkezG-56c2PrOf4I1hO-89">
          <mxGeometry width="100" height="100" relative="1" as="geometry">
            <mxPoint x="120" y="470" as="sourcePoint" />
            <mxPoint x="160" y="440" as="targetPoint" />
          </mxGeometry>
        </mxCell>
        <mxCell id="AhkezG-56c2PrOf4I1hO-89" value="Screen applicants and&lt;div&gt;Schedule Interviews&lt;/div&gt;" style="shape=rhombus;double=1;perimeter=rhombusPerimeter;whiteSpace=wrap;html=1;align=center;" vertex="1" parent="1">
          <mxGeometry x="30" y="405" width="130" height="85" as="geometry" />
        </mxCell>
        <mxCell id="AhkezG-56c2PrOf4I1hO-90" value="" style="endArrow=none;html=1;rounded=0;exitX=0.572;exitY=0.141;exitDx=0;exitDy=0;exitPerimeter=0;" edge="1" parent="1" source="AhkezG-56c2PrOf4I1hO-89" target="AhkezG-56c2PrOf4I1hO-91">
          <mxGeometry width="50" height="50" relative="1" as="geometry">
            <mxPoint x="80" y="395" as="sourcePoint" />
            <mxPoint x="80" y="360" as="targetPoint" />
          </mxGeometry>
        </mxCell>
        <mxCell id="AhkezG-56c2PrOf4I1hO-91" value="Hire" style="shape=rhombus;perimeter=rhombusPerimeter;whiteSpace=wrap;html=1;align=center;" vertex="1" parent="1">
          <mxGeometry y="330" width="120" height="50" as="geometry" />
        </mxCell>
        <mxCell id="AhkezG-56c2PrOf4I1hO-93" value="" style="edgeStyle=entityRelationEdgeStyle;fontSize=12;html=1;endArrow=ERmandOne;startArrow=ERmandOne;rounded=0;exitX=0.5;exitY=0;exitDx=0;exitDy=0;entryX=0.5;entryY=1;entryDx=0;entryDy=0;" edge="1" parent="1" source="AhkezG-56c2PrOf4I1hO-91" target="AhkezG-56c2PrOf4I1hO-36">
          <mxGeometry width="100" height="100" relative="1" as="geometry">
            <mxPoint x="50" y="290" as="sourcePoint" />
            <mxPoint x="20" y="220" as="targetPoint" />
          </mxGeometry>
        </mxCell>
        <mxCell id="AhkezG-56c2PrOf4I1hO-94" value="" style="edgeStyle=entityRelationEdgeStyle;fontSize=12;html=1;endArrow=ERoneToMany;rounded=0;exitX=0;exitY=0.5;exitDx=0;exitDy=0;" edge="1" parent="1" source="AhkezG-56c2PrOf4I1hO-75" target="AhkezG-56c2PrOf4I1hO-95">
          <mxGeometry width="100" height="100" relative="1" as="geometry">
            <mxPoint x="140" y="540" as="sourcePoint" />
            <mxPoint x="40" y="640" as="targetPoint" />
          </mxGeometry>
        </mxCell>
        <mxCell id="AhkezG-56c2PrOf4I1hO-95" value="Publish" style="shape=rhombus;perimeter=rhombusPerimeter;whiteSpace=wrap;html=1;align=center;" vertex="1" parent="1">
          <mxGeometry x="-40" y="540" width="120" height="60" as="geometry" />
        </mxCell>
        <mxCell id="AhkezG-56c2PrOf4I1hO-96" value="" style="edgeStyle=entityRelationEdgeStyle;fontSize=12;html=1;endArrow=ERoneToMany;rounded=0;exitX=0;exitY=0.5;exitDx=0;exitDy=0;" edge="1" parent="1" source="AhkezG-56c2PrOf4I1hO-95" target="AhkezG-56c2PrOf4I1hO-97">
          <mxGeometry width="100" height="100" relative="1" as="geometry">
            <mxPoint x="-70" y="590" as="sourcePoint" />
            <mxPoint x="-170" y="690" as="targetPoint" />
          </mxGeometry>
        </mxCell>
        <mxCell id="AhkezG-56c2PrOf4I1hO-97" value="Results" style="whiteSpace=wrap;html=1;align=center;" vertex="1" parent="1">
          <mxGeometry x="-260" y="610" width="110" height="50" as="geometry" />
        </mxCell>
      </root>
    </mxGraphModel>
  </diagram>
</mxfile>
